<svg height="64" width="64" xml:space="preserve" xmlns="http://www.w3.org/2000/svg"><path fill="#FF9D7E" d="M14 30h44v22H14z"/><path fill="#FFB9A3" d="M14 30h13v22H14z"/><path d="M41 45.5c-.7.3-1.5.5-2.4.5-1.2 0-2.3-.4-3-1.2-.8-.8-1.2-1.8-1.2-3.1s.4-2.3 1.2-3.1c.7-.8 1.8-1.2 3-1.2.8 0 1.6.1 2.4.4l-.4 1-2-.3c-.9 0-1.6.2-2.1.8-.5.6-.8 1.4-.8 2.4s.3 1.7.8 2.3c.6.6 1.3 1 2.1 1 .7 0 1.5-.2 2.2-.5l.2 1z" fill="#FFF"/><path fill="#FFF" d="M38.5 43.3H33v-1h6zM39 41.3h-6v-1h6.5z"/><path fill="#FFB9A3" d="M52 30h6v22h-6z"/><path d="M38 32a9 9 0 1 0 0 18 9 9 0 0 0 0-18zm0 17a8 8 0 1 1 0-16 8 8 0 0 1 0 16z" fill="#FFF"/><path fill="#FF9D7E" d="M53 37h1v1h-1zM54 34h1v1h-1zM56 38h1v1h-1zM56 34h1v1h-1zM54 38h1v1h-1zM55 37h1v1h-1zM55 35h1v1h-1zM54 36h1v1h-1zM53 35h1v1h-1zM53 41h1v1h-1zM56 40h1v1h-1zM55 41h1v1h-1zM55 39h1v1h-1zM54 40h1v1h-1zM54 50h1v1h-1zM56 50h1v1h-1zM55 51h1v1h-1zM53 49h1v1h-1zM54 46h1v1h-1zM56 46h1v1h-1zM55 49h1v1h-1zM55 47h1v1h-1zM54 48h1v1h-1zM53 47h1v1h-1zM54 42h1v1h-1zM56 44h1v1h-1zM55 45h1v1h-1zM55 43h1v1h-1zM54 44h1v1h-1zM53 43h1v1h-1zM54 30h1v1h-1zM56 32h1v1h-1zM55 33h1v1h-1zM55 31h1v1h-1zM54 32h1v1h-1zM53 31h1v1h-1z"/><path fill="#37474F" d="M14 30h38v6H14z" opacity=".2"/><path fill="#69F0AE" d="M6 12h44v22H6z"/><path d="M14.5 30c-.3-2-2-3.7-4-4v-7c2-.3 3.7-2 4-4h27c.3 2 2 3.7 4 4v7c-2 .3-3.7 2-4 4h-27z" fill="#B9F6CA"/><path d="M41.1 16a5 5 0 0 0 3.9 3.9v6.2a5 5 0 0 0-3.9 3.9H14.9a5 5 0 0 0-3.9-3.9v-6.2a5 5 0 0 0 3.9-3.9h26.2zm.9-1H14a4 4 0 0 1-4 4v8a4 4 0 0 1 4 4h28a4 4 0 0 1 4-4v-8a4 4 0 0 1-4-4z" fill="#00C853"/><path d="M28 20c.7 0 1 .5 1 1h2c0-.8-.7-1.6-2-1.9V18h-2v1c-1.3.3-2 1.1-2 2.5 0 1.3 1 2.5 3 2.5.6 0 1 .4 1 1s-.3 1-1 1-1-.4-1-1h-2c0 1.2.7 1.8 2 2v1h2v-1c1.3-.3 2-1 2-2.5 0-1.4-1-2.5-3-2.5-.6 0-1-.3-1-1 0-.5.3-1 1-1zM39 21.5a1.5 1.5 0 1 1 0 3 1.5 1.5 0 0 1 0-3zm0-1a2.5 2.5 0 1 0 0 5 2.5 2.5 0 0 0 0-5zM17 21.5a1.5 1.5 0 1 1 0 3 1.5 1.5 0 0 1 0-3zm0-1a2.5 2.5 0 1 0 0 5 2.5 2.5 0 0 0 0-5z" fill="#00C853"/><path d="m8.6 37.4-.7.7 3 2.9H7.6c-2 0-3.5-1.6-3.5-3.5V23H3v14.5C3 40 5 42 7.5 42H11l-3 2.9.6.7 4.4-4.1-4.4-4zM56.5 22H53l3-2.9-.6-.7-4.4 4.1 4.4 4 .7-.6-3-2.9h3.4c2 0 3.5 1.6 3.5 3.5V42h1V26.5c0-2.5-2-4.5-4.5-4.5z" fill="#607D8B"/></svg>